<?xml version="1.0" encoding="UTF-8" standalone="no"?>
<!-- Created with Inkscape (http://www.inkscape.org/) -->

<svg
   width="200mm"
   height="200mm"
   viewBox="0 0 200 200"
   version="1.1"
   id="svg1"
   inkscape:version="1.3 (0e150ed6c4, 2023-07-21)"
   sodipodi:docname="rx.svg"
   xml:space="preserve"
   xmlns:inkscape="http://www.inkscape.org/namespaces/inkscape"
   xmlns:sodipodi="http://sodipodi.sourceforge.net/DTD/sodipodi-0.dtd"
   xmlns:xlink="http://www.w3.org/1999/xlink"
   xmlns="http://www.w3.org/2000/svg"
   xmlns:svg="http://www.w3.org/2000/svg"><sodipodi:namedview
     id="namedview1"
     pagecolor="#ffffff"
     bordercolor="#000000"
     borderopacity="0.25"
     inkscape:showpageshadow="2"
     inkscape:pageopacity="0.0"
     inkscape:pagecheckerboard="0"
     inkscape:deskcolor="#d1d1d1"
     inkscape:document-units="mm"
     inkscape:zoom="1"
     inkscape:cx="158"
     inkscape:cy="398.5"
     inkscape:window-width="3440"
     inkscape:window-height="1369"
     inkscape:window-x="-8"
     inkscape:window-y="-8"
     inkscape:window-maximized="1"
     inkscape:current-layer="layer1" /><defs
     id="defs1"><linearGradient
       id="linearGradient5"
       inkscape:collect="always"><stop
         style="stop-color:#ff6600;stop-opacity:1;"
         offset="0"
         id="stop5" /><stop
         style="stop-color:#f0f0f0;stop-opacity:0;"
         offset="1"
         id="stop6" /></linearGradient><linearGradient
       inkscape:collect="always"
       xlink:href="#linearGradient5"
       id="linearGradient6"
       x1="8.3515938"
       y1="100.07413"
       x2="188.1061"
       y2="100.07413"
       gradientUnits="userSpaceOnUse"
       gradientTransform="translate(233.86084,-0.97337782)" /></defs><g
     inkscape:label="Layer 1"
     inkscape:groupmode="layer"
     id="layer1"><path
       style="fill:#ece2f0;fill-opacity:1;stroke:none;stroke-width:3.77896;stroke-dasharray:none;stroke-dashoffset:0;stroke-opacity:1"
       d="M 148.99078,369.94999 C 73.294476,186.86945 11.796231,33.636524 10.412765,30.239387 6.3436917,20.247675 7.1908987,12.839941 12.537692,8.8549149 14.00297,7.762827 16.228819,7.2380737 20.399436,7.2809478 24.337383,7.3214301 74.19168,17.16053 219.92944,45.994739 c 107.12198,21.19408 197.35112,39.20706 198.16035,39.400793 2.50946,0.600765 16.72027,10.818723 25.60389,18.489858 24.54277,21.19304 36.99774,42.61845 42.91934,71.9967 1.3939,6.91537 2.07389,10.62213 2.05867,22.64886 -0.0203,16.04039 -1.47715,22.97011 -6.38064,37.68561 -8.16028,24.48923 -19.91722,39.11971 -42.42212,54.04439 -8.81141,5.8435 -23.91271,13.36134 -34.82933,17.59944 -13.11721,5.09243 -12.59534,4.3658 -12.59534,6.44221 0,1.47376 10.11856,11.71893 52.15097,54.1857 28.68202,28.97842 52.94076,53.6619 53.06803,54.01191 0.18909,0.52001 -37.72222,50.61066 -40.53804,53.67524 -0.6648,0.72352 -14.07323,-15.19224 -65.95593,-69.52946 -35.94163,-37.642 -67.13674,-70.07702 -69.47363,-72.36259 -7.87823,-7.70519 -1.77243,-6.73513 -59.74748,-6.97383 -37.65156,-0.15503 -50.60003,-0.36891 -51.3416,0.24699 -0.54649,0.45355 -1.1483,0.80242 -1.1483,1.69353 0,0.89111 28.4478,69.82387 63.83849,153.26494 35.39069,83.44106 65.93771,152.24939 65.93771,152.6373 0,0.38793 -9.33321,12.623 -19.71418,26.54088 -10.38097,13.91786 -20.50579,29.95731 -24.54061,33.9022 l -7.61064,9.03893 z M 364.64325,266.6365 c 10.08051,-2.57815 19.31977,-9.15832 29.82483,-18.00365 6.39112,-5.38136 11.15747,-10.48953 14.83931,-17.19246 7.78852,-14.17924 11.50623,-33.12312 8.91151,-45.64808 -3.15487,-15.22891 -13.70731,-32.94072 -24.22995,-41.78711 -10.35137,-8.70242 -32.39194,-22.35722 -46.88791,-27.36479 l -7.07107,-2.44267 -103.60971,-0.7186 c -62.70291,-0.43488 -103.33713,-0.92486 -103.19247,-0.53346 0.13174,0.35645 14.88445,34.95454 31.32922,77.56821 l 31.26737,76.76657 81.07159,0.0226 c 78.97297,0.003 82.66484,0.6334 87.74728,-0.66652 z"
       id="path53"
       transform="scale(0.26458333)"
       sodipodi:nodetypes="ssssssssssssssssssscssssscssssssscsssccss" /><path
       style="fill:#b3e2cd;fill-opacity:1;stroke:none;stroke-width:7.55791;stroke-dasharray:none;stroke-dashoffset:0;stroke-opacity:1"
       d="m 304.81285,735.85296 c -6.03846,-3.12143 -8.34819,-6.55314 -12.23145,-17.89005 L 288.86724,707.1197 498.22449,426.63493 C 613.31907,272.43785 707.79267,143.1882 708.32055,142.5929 c 1.0435,-1.17675 29.12676,5.68203 35.46891,8.25248 5.91339,2.39668 6.916,8.57658 2.01244,16.46475 -2.27878,3.66579 -99.33166,131.51291 -214.21466,284.05072 -192.49235,255.58491 -198.32078,272.70939 -220.24338,284.77149 -0.3471,-0.005 -4.19756,0.92683 -6.53101,-0.27938 z"
       id="path55"
       transform="scale(0.26458333)"
       sodipodi:nodetypes="sscssssscs" /><path
       id="path5"
       style="fill:url(#linearGradient6);stroke:none;stroke-width:0.2"
       inkscape:transform-center-x="0.44796634"
       inkscape:transform-center-y="7.5959059"
       d="M 242.40351,23.510664 421.78823,50.009602 330.45576,174.63792 Z"
       sodipodi:nodetypes="cccc" /><path
       style="fill:#ffffff;stroke:#062aeb;stroke-width:0.477;stroke-dasharray:2.862, 0.477;stroke-dashoffset:0;stroke-opacity:1"
       d="M 421.78823,50.009602 330.45576,174.63792"
       id="path3-5"
       sodipodi:nodetypes="cc" /><path
       style="fill:#ffffff;stroke:#ff1b00;stroke-width:0.48;stroke-dasharray:5.76, 0.48;stroke-dashoffset:0;stroke-opacity:1"
       d="M 282.86879,92.962688 425.4636,130.87421"
       id="path3-5-8"
       sodipodi:nodetypes="cc" /><path
       style="fill:#ffffff;stroke:#ff1b00;stroke-width:0.480748;stroke-dasharray:none;stroke-opacity:1"
       d="m 242.40351,23.510664 56.72713,31.85924 -16.26185,37.592784"
       id="path4" /><path
       style="fill:#ffffff;stroke:#ff1b00;stroke-width:0.480748;stroke-dasharray:none;stroke-opacity:1"
       d="M 242.40351,23.510664 330.45576,174.63792"
       id="path3"
       sodipodi:nodetypes="cc" /><circle
       id="path10"
       style="fill:#ffffff;stroke:#ff1b00;stroke-width:0.264583"
       cx="-246.57822"
       cy="5.2912765"
       r="0.0063733389" /><circle
       id="path11"
       style="fill:#ffffff;stroke:#000000;stroke-width:0.264583;stroke-opacity:1"
       cx="-144.09677"
       cy="24.85074"
       r="0.0063733389" /><path
       style="fill:#ffffff;fill-opacity:1;stroke:#000000;stroke-width:1;stroke-dasharray:none;stroke-dashoffset:0;stroke-opacity:1"
       d="M -223.63712,9.47978 -35.56989,46.70809"
       id="path21"
       sodipodi:nodetypes="cc" /><path
       style="fill:#ffffff;fill-opacity:1;stroke:#000000;stroke-width:1;stroke-dasharray:none;stroke-dashoffset:0;stroke-opacity:1"
       d="M -144.64724,199.97641 -34.04005,53.10327"
       id="path21-1"
       sodipodi:nodetypes="cc" /><path
       style="fill:#ffffff;fill-opacity:1;stroke:#000000;stroke-width:1;stroke-dasharray:none;stroke-dashoffset:0;stroke-opacity:1"
       d="m -228.90753,15.09586 76.03749,185.18134"
       id="path22"
       sodipodi:nodetypes="cc" /><path
       style="fill:none;fill-opacity:1;stroke:#000000;stroke-width:1;stroke-dasharray:none;stroke-dashoffset:0;stroke-opacity:1"
       d="m -223.51414,9.49435 c 0,0 -4.61327,-0.4185 -5.54666,0.50603 -1.00032,0.99083 0.17199,5.14819 0.17199,5.14819"
       id="path23"
       sodipodi:nodetypes="csc" /><path
       style="fill:none;fill-opacity:1;stroke:#000000;stroke-width:1;stroke-dasharray:none;stroke-dashoffset:0;stroke-opacity:1"
       d="m -142.87248,38.04188 -52.19106,-0.052 16.00356,40.12711 h 42.12564"
       id="path24"
       sodipodi:nodetypes="cccc" /><path
       style="fill:none;fill-opacity:1;stroke:#000000;stroke-width:1;stroke-dasharray:none;stroke-dashoffset:0;stroke-opacity:1"
       d="m -143.07368,38.00445 c 0,0 8.75533,2.47896 15.42167,7.52806 4.5017,3.40961 6.77602,8.93135 7.1755,11.61484 0.46642,3.13305 -0.66708,10.3653 -4.52188,14.48225 -4.59848,4.91122 -12.1038,6.48745 -12.1038,6.48745"
       id="path25"
       sodipodi:nodetypes="csssc" /><path
       style="fill:#ffffff;fill-opacity:1;stroke:#000000;stroke-width:1;stroke-dasharray:none;stroke-dashoffset:0;stroke-opacity:1"
       d="M -83.58855,66.63923 H -60.8732"
       id="path27" /><path
       style="fill:none;fill-opacity:1;stroke:#000000;stroke-width:1;stroke-dasharray:none;stroke-dashoffset:0;stroke-opacity:1"
       d="m -84.73262,67.41615 -28.23674,39.597 -12.88139,-16.5211"
       id="path28"
       sodipodi:nodetypes="ccc" /><path
       style="fill:none;fill-opacity:1;stroke:#000000;stroke-width:1;stroke-dasharray:none;stroke-dashoffset:0;stroke-opacity:1"
       d="m -60.49317,67.4402 -40.93197,52.35072 36.20714,43.43194"
       id="path29"
       sodipodi:nodetypes="ccc" /><path
       style="fill:none;fill-opacity:1;stroke:#000000;stroke-width:1;stroke-dasharray:none;stroke-dashoffset:0;stroke-opacity:1"
       d="m -65.1547,165.77066 -23.20708,0.11077 -24.16528,-29.1836"
       id="path30"
       sodipodi:nodetypes="ccc" /><path
       style="fill:none;fill-opacity:1;stroke:#000000;stroke-width:1;stroke-dasharray:none;stroke-dashoffset:0;stroke-opacity:1"
       d="m -113.52721,136.63731 -27.68504,38.26405"
       id="path31"
       sodipodi:nodetypes="cc" /><path
       style="fill:none;fill-opacity:1;stroke:#000000;stroke-width:1;stroke-dasharray:none;stroke-dashoffset:0;stroke-opacity:1"
       d="m -123.53624,120.73087 -25.67379,34.40292"
       id="path32"
       sodipodi:nodetypes="cc" /><path
       style="fill:none;fill-opacity:1;stroke:#000000;stroke-width:1;stroke-dasharray:none;stroke-dashoffset:0;stroke-opacity:1"
       d="M -123.53624,120.73087 -145.19975,97.27698"
       id="path33" /><path
       style="fill:none;fill-opacity:1;stroke:#000000;stroke-width:1;stroke-dasharray:none;stroke-dashoffset:0;stroke-opacity:1"
       d="m -174.54369,94.6065 h 23.80052"
       id="path34" /><path
       style="fill:none;fill-opacity:1;stroke:#000000;stroke-width:1;stroke-dasharray:none;stroke-dashoffset:0;stroke-opacity:1"
       d="m -174.54369,94.6065 38.83053,93.16662"
       id="path35"
       sodipodi:nodetypes="cc" /><path
       style="fill:none;fill-opacity:1;stroke:#000000;stroke-width:1;stroke-dasharray:none;stroke-dashoffset:0;stroke-opacity:1"
       d="m -150.74317,94.6065 c 0,0 2.04473,-0.009 2.98006,0.44183 0.91248,0.43957 2.56336,2.22865 2.56336,2.22865"
       id="path36"
       sodipodi:nodetypes="csc" /><path
       style="fill:none;fill-opacity:1;stroke:#000000;stroke-width:1;stroke-dasharray:none;stroke-dashoffset:0;stroke-opacity:1"
       d="m -120.15123,30.00634 c 0,0 8.62524,5.14001 13.70643,12.639 4.46049,6.58294 5.49293,15.27414 5.05256,19.94752 -0.4097,4.34791 -2.34863,12.61273 -7.40393,17.75024 -6.7633,6.87326 -17.05458,10.14895 -17.05458,10.14895"
       id="path37"
       sodipodi:nodetypes="csssc" /><path
       style="fill:none;fill-opacity:1;stroke:#000000;stroke-width:1;stroke-dasharray:none;stroke-dashoffset:0;stroke-opacity:1"
       d="m -35.6702,46.68018 c 0,0 0.92852,0.34866 1.82002,0.85154 0.81984,0.46245 1.62013,1.02425 1.67158,1.47698 0.10258,0.9028 -1.96842,4.25358 -1.96842,4.25358"
       id="path38"
       sodipodi:nodetypes="cssc" /><path
       style="fill:none;fill-opacity:1;stroke:#000000;stroke-width:1;stroke-dasharray:none;stroke-dashoffset:0;stroke-opacity:1"
       d="m -152.96499,200.13045 c 0,0 2.65843,2.99656 3.93699,2.93026 1.50565,-0.0781 4.54861,-3.24096 4.54861,-3.24096"
       id="path39"
       sodipodi:nodetypes="csc" /><path
       style="fill:none;fill-opacity:1;stroke:#000000;stroke-width:1;stroke-dasharray:none;stroke-dashoffset:0;stroke-opacity:1"
       d="m -65.218,163.22286 c 0,0 1.38983,1.66741 1.40032,2.08967 0.0106,0.42701 -1.33702,0.45813 -1.33702,0.45813"
       id="path40"
       sodipodi:nodetypes="csc" /><path
       style="fill:none;fill-opacity:1;stroke:#000000;stroke-width:1;stroke-dasharray:none;stroke-dashoffset:0;stroke-opacity:1"
       d="m -60.8732,66.63923 c 0,0 0.66832,7.7e-4 0.73647,0.1444 0.0585,0.12337 -0.35644,0.65657 -0.35644,0.65657"
       id="path41"
       sodipodi:nodetypes="csc" /><path
       style="fill:none;fill-opacity:1;stroke:#000000;stroke-width:1;stroke-dasharray:none;stroke-dashoffset:0;stroke-opacity:1"
       d="m 104.48332,83.691148 c 0,0 -0.4019,-0.372756 -0.38981,-0.531273 0.0118,-0.154376 0.58044,-0.348417 0.58044,-0.348417"
       id="path41-2"
       sodipodi:nodetypes="csc" /><path
       style="fill:none;fill-opacity:1;stroke:#000000;stroke-width:1;stroke-dasharray:none;stroke-dashoffset:0;stroke-opacity:1"
       d="m 55.96954,87.579335 c 0,0 -0.194875,-0.429487 -0.161933,-0.597168 0.02826,-0.143853 0.679867,-0.115949 0.679867,-0.115949"
       id="path41-2-4"
       sodipodi:nodetypes="csc" /><path
       style="fill:none;fill-opacity:1;stroke:#000000;stroke-width:1;stroke-dasharray:none;stroke-dashoffset:0;stroke-opacity:1"
       d="m -112.46846,136.78467 c 0,0 -0.44827,-0.78375 -0.60708,-0.7765 -0.13639,0.006 -0.50289,0.71088 -0.50289,0.71088"
       id="path41-0"
       sodipodi:nodetypes="csc" /><path
       style="fill:none;fill-opacity:1;stroke:#000000;stroke-width:1;stroke-dasharray:none;stroke-dashoffset:0;stroke-opacity:1"
       d="m -83.49268,66.63923 c 0,0 -0.56161,-0.037 -0.69513,0.0493 -0.12051,0.0779 -0.59284,0.80223 -0.59284,0.80223"
       id="path41-6"
       sodipodi:nodetypes="csc" /><path
       style="fill:none;fill-opacity:1;stroke:#42c21d;stroke-width:0.5;stroke-dasharray:none;stroke-dashoffset:0;stroke-opacity:1"
       d="M -195.06354,37.98988 -229.0608,10.00038"
       id="path42"
       sodipodi:nodetypes="cc" /><path
       style="fill:none;fill-opacity:1;stroke:#42c21d;stroke-width:0.5;stroke-dasharray:none;stroke-dashoffset:0;stroke-opacity:1"
       d="m -195.06354,37.98988 -23.68582,1.84514"
       id="path42-6"
       sodipodi:nodetypes="cc" /><path
       style="fill:none;fill-opacity:1;stroke:#42c21d;stroke-width:0.5;stroke-dasharray:none;stroke-dashoffset:0;stroke-opacity:1"
       d="m -187.06176,58.05343 -31.6876,-18.21841"
       id="path42-8"
       sodipodi:nodetypes="cc" /><path
       style="fill:none;fill-opacity:1;stroke:#42c21d;stroke-width:0.5;stroke-dasharray:none;stroke-dashoffset:0;stroke-opacity:1"
       d="m -204.54951,74.41729 17.48775,-16.36386"
       id="path42-0"
       sodipodi:nodetypes="cc" /><path
       style="fill:none;fill-opacity:1;stroke:#42c21d;stroke-width:0.5;stroke-dasharray:none;stroke-dashoffset:0;stroke-opacity:1"
       d="m -179.05998,78.11699 -25.48953,-3.6997"
       id="path42-65"
       sodipodi:nodetypes="cc" /><path
       style="fill:none;fill-opacity:1;stroke:#42c21d;stroke-width:0.5;stroke-dasharray:none;stroke-dashoffset:0;stroke-opacity:1"
       d="m -179.05998,78.11699 -15.98415,19.49907"
       id="path42-65-3"
       sodipodi:nodetypes="cc" /><path
       style="fill:none;fill-opacity:1;stroke:#42c21d;stroke-width:0.5;stroke-dasharray:none;stroke-dashoffset:0;stroke-opacity:1"
       d="m -174.54369,94.6065 -20.50044,3.00956"
       id="path42-65-00"
       sodipodi:nodetypes="cc" /><path
       style="fill:none;fill-opacity:1;stroke:#42c21d;stroke-width:0.5;stroke-dasharray:none;stroke-dashoffset:0;stroke-opacity:1"
       d="m -174.54369,94.6065 -10.90745,26.32285"
       id="path42-65-2"
       sodipodi:nodetypes="cc" /><path
       style="fill:none;fill-opacity:1;stroke:#42c21d;stroke-width:0.5;stroke-dasharray:none;stroke-dashoffset:0;stroke-opacity:1"
       d="m -162.64343,124.13684 -22.80771,-3.20749"
       id="path42-65-5"
       sodipodi:nodetypes="cc" /><path
       style="fill:none;fill-opacity:1;stroke:#42c21d;stroke-width:0.5;stroke-dasharray:none;stroke-dashoffset:0;stroke-opacity:1"
       d="m -175.61394,144.88681 12.97051,-20.74997"
       id="path42-65-5-9"
       sodipodi:nodetypes="cc" /><path
       style="fill:none;fill-opacity:1;stroke:#42c21d;stroke-width:0.5;stroke-dasharray:none;stroke-dashoffset:0;stroke-opacity:1"
       d="m -175.61394,144.88681 15.86475,-2.04098 5.08728,-0.53669"
       id="path42-65-5-9-8"
       sodipodi:nodetypes="ccc" /><circle
       id="path10-7"
       style="fill:#ffffff;stroke:#ff1b00;stroke-width:0.264583"
       cx="-2.6525717"
       cy="4.9607968"
       r="0.0063733389" /><circle
       id="path11-1"
       style="fill:#ffffff;stroke:#000000;stroke-width:0.264583;stroke-opacity:1"
       cx="86.864288"
       cy="17.111927"
       r="0.0063733389" /><path
       style="fill:#ffffff;fill-opacity:1;stroke:#000000;stroke-width:1;stroke-dasharray:none;stroke-dashoffset:0;stroke-opacity:1"
       d="M 7.3239337,1.7409667 195.39117,38.969277"
       id="path21-7"
       sodipodi:nodetypes="cc" /><path
       style="fill:#ffffff;fill-opacity:1;stroke:#000000;stroke-width:1;stroke-dasharray:none;stroke-dashoffset:0;stroke-opacity:1"
       d="M 86.313814,192.2376 196.92101,45.364457"
       id="path21-1-3"
       sodipodi:nodetypes="cc" /><path
       style="fill:#ffffff;fill-opacity:1;stroke:#000000;stroke-width:1;stroke-dasharray:none;stroke-dashoffset:0;stroke-opacity:1"
       d="M 75.785019,187.39351 187.19692,37.806086"
       id="path21-1-3-1"
       sodipodi:nodetypes="cc" /><path
       style="fill:#ffffff;fill-opacity:1;stroke:#000000;stroke-width:1;stroke-dasharray:none;stroke-dashoffset:0;stroke-opacity:1"
       d="M 2.0535237,7.3570467 78.389187,193.07627"
       id="path22-0"
       sodipodi:nodetypes="cc" /><path
       style="fill:none;fill-opacity:1;stroke:#000000;stroke-width:1;stroke-dasharray:none;stroke-dashoffset:0;stroke-opacity:1"
       d="m 7.3327035,1.7409667 c 0,0 -1.0916919,-0.2133282 -2.462333,-0.1832202 C 3.6785571,1.5839265 2.851366,2.1318122 2.4503135,2.570085 2.0906027,2.9631792 1.5741402,4.2338347 1.6366035,5.1188652 1.7391938,6.572446 2.0547041,7.3629845 2.0547041,7.3629845"
       id="path23-1"
       sodipodi:nodetypes="csssc" /><path
       style="fill:none;fill-opacity:1;stroke:#000000;stroke-width:1;stroke-dasharray:none;stroke-dashoffset:0;stroke-opacity:1"
       d="m 88.088577,30.303067 -52.191063,-0.052 16.00356,40.12711 h 42.125643"
       id="path24-3"
       sodipodi:nodetypes="cccc" /><path
       style="fill:none;fill-opacity:1;stroke:#000000;stroke-width:1;stroke-dasharray:none;stroke-dashoffset:0;stroke-opacity:1"
       d="m 88.045993,30.304141 c 0,0 1.457858,0.02705 3.559867,0.746356 3.089722,1.057309 7.802037,3.27534 11.76934,6.280179 4.5017,3.409601 6.70987,9.394371 7.10935,12.077861 0.46642,3.13305 -0.66709,10.365294 -4.52188,14.48225 -1.74706,1.86588 -3.87389,3.45281 -5.82971,4.564156 -3.322174,1.887746 -6.120006,1.923294 -6.120006,1.923294"
       id="path25-5"
       sodipodi:nodetypes="csssssc" /><path
       style="fill:none;fill-opacity:1;stroke:#000000;stroke-width:1;stroke-dasharray:none;stroke-dashoffset:0;stroke-opacity:1"
       d="M 120.96306,126.39287 85.749611,89.538167"
       id="path33-0"
       sodipodi:nodetypes="cc" /><path
       style="fill:none;fill-opacity:1;stroke:#000000;stroke-width:1;stroke-dasharray:none;stroke-dashoffset:0;stroke-opacity:1"
       d="M 168.24617,175.46439 129.26481,135.51892"
       id="path33-0-8"
       sodipodi:nodetypes="cc" /><path
       style="fill:none;fill-opacity:1;stroke:#000000;stroke-width:1;stroke-dasharray:none;stroke-dashoffset:0;stroke-opacity:1"
       d="M 131.86923,111.40485 104.41513,83.622258"
       id="path33-0-9"
       sodipodi:nodetypes="cc" /><path
       style="fill:none;fill-opacity:1;stroke:#000000;stroke-width:1;stroke-dasharray:none;stroke-dashoffset:0;stroke-opacity:1"
       d="m 179.6724,161.50097 -38.88028,-40.8701"
       id="path33-0-9-5"
       sodipodi:nodetypes="cc" /><path
       style="fill:none;fill-opacity:1;stroke:#000000;stroke-width:1;stroke-dasharray:none;stroke-dashoffset:0;stroke-opacity:1"
       d="m 56.417364,86.867687 h 23.80052"
       id="path34-6" /><path
       style="fill:none;fill-opacity:1;stroke:#000000;stroke-width:1;stroke-dasharray:none;stroke-dashoffset:0;stroke-opacity:1"
       d="M 55.954343,87.545682 90.043564,167.92008"
       id="path35-6"
       sodipodi:nodetypes="cc" /><path
       style="fill:none;fill-opacity:1;stroke:#000000;stroke-width:1;stroke-dasharray:none;stroke-dashoffset:0;stroke-opacity:1"
       d="m 80.217884,86.867687 c 0,0 2.04473,-0.009 2.98006,0.44183 0.91248,0.43957 2.56336,2.22865 2.56336,2.22865"
       id="path36-3"
       sodipodi:nodetypes="csc" /><path
       style="fill:none;fill-opacity:1;stroke:#000000;stroke-width:1;stroke-dasharray:none;stroke-dashoffset:0;stroke-opacity:1"
       d="m 110.80983,22.267527 c 0,0 8.62524,5.14001 13.70643,12.639 4.46049,6.58294 5.49293,15.27414 5.05256,19.94752 -0.4097,4.34791 -2.34863,12.61273 -7.40393,17.75024 -6.7633,6.87326 -17.5176,10.215096 -17.5176,10.215096"
       id="path37-9"
       sodipodi:nodetypes="csssc" /><path
       style="fill:none;fill-opacity:1;stroke:#000000;stroke-width:1;stroke-dasharray:none;stroke-dashoffset:0;stroke-opacity:1"
       d="m 195.29086,38.941367 c 0,0 1.04428,0.216368 1.93578,0.719248 0.81984,0.46245 1.51337,1.908221 1.38292,2.327878 -0.26971,0.867655 -1.79552,3.546667 -1.79552,3.546667"
       id="path38-1"
       sodipodi:nodetypes="cssc" /><path
       style="fill:none;fill-opacity:1;stroke:#000000;stroke-width:1;stroke-dasharray:none;stroke-dashoffset:0;stroke-opacity:1"
       d="m 179.56863,161.3811 c 0,0 2.43802,2.56686 2.72557,5.85328 0.24316,2.7791 -1.58959,6.07725 -2.5361,7.10168 -1.09938,1.18989 -4.3618,2.96923 -7.07497,2.81002 -2.61154,-0.15324 -4.49591,-1.7404 -4.49591,-1.7404"
       id="path43"
       sodipodi:nodetypes="csssc" /><path
       style="fill:none;fill-opacity:1;stroke:#000000;stroke-width:1;stroke-dasharray:none;stroke-dashoffset:0;stroke-opacity:1"
       d="m 78.355194,193.00962 c 0,0 0.767273,1.3538 1.476457,1.64595 1.134191,0.46723 1.593403,0.65652 2.415614,0.56951 0.924384,-0.0978 2.518538,-1.42226 3.439654,-2.31163 0.397077,-0.38339 0.647565,-0.71306 0.647565,-0.71306"
       id="path44"
       sodipodi:nodetypes="csssc" /><path
       style="fill:#ece2f0;fill-opacity:1;stroke:none;stroke-width:3.77896;stroke-dasharray:none;stroke-dashoffset:0;stroke-opacity:1"
       d="m 648.06619,666.37158 c -2.13745,-0.57428 -5.3965,-1.90569 -7.24235,-2.95867 -2.27113,-1.29559 -20.10239,-19.0883 -55.15716,-55.03792 -28.49058,-29.21788 -61.41702,-62.97737 -73.16985,-75.02112 l -21.36878,-21.89772 20.03173,-26.57475 20.03173,-26.57476 72.04773,75.66176 c 39.62625,41.61397 73.39375,77.3052 75.03887,79.31384 6.5222,7.96339 9.53378,17.52897 8.00056,25.41196 -1.06118,5.45603 -5.38587,14.88756 -8.40121,18.32184 -4.07062,4.63618 -17.79636,10.56561 -24.15724,10.43577 -0.97228,-0.0199 -3.51659,-0.50595 -5.65403,-1.08023 z"
       id="path54"
       transform="scale(0.26458333)" /></g></svg>
