<?xml version="1.0" encoding="UTF-8" standalone="no"?>
<!-- Created with Inkscape (http://www.inkscape.org/) -->

<svg
   width="200mm"
   height="200mm"
   viewBox="0 0 200 200"
   version="1.1"
   id="svg1"
   inkscape:version="1.3 (0e150ed6c4, 2023-07-21)"
   sodipodi:docname="rx.svg"
   xml:space="preserve"
   inkscape:export-filename="rx.png"
   inkscape:export-xdpi="96"
   inkscape:export-ydpi="96"
   xmlns:inkscape="http://www.inkscape.org/namespaces/inkscape"
   xmlns:sodipodi="http://sodipodi.sourceforge.net/DTD/sodipodi-0.dtd"
   xmlns:xlink="http://www.w3.org/1999/xlink"
   xmlns="http://www.w3.org/2000/svg"
   xmlns:svg="http://www.w3.org/2000/svg"><sodipodi:namedview
     id="namedview1"
     pagecolor="#ffffff"
     bordercolor="#000000"
     borderopacity="0.25"
     inkscape:showpageshadow="2"
     inkscape:pageopacity="0.0"
     inkscape:pagecheckerboard="0"
     inkscape:deskcolor="#d1d1d1"
     inkscape:document-units="mm"
     inkscape:zoom="0.7071068"
     inkscape:cx="-478.00417"
     inkscape:cy="415.07167"
     inkscape:window-width="3440"
     inkscape:window-height="1369"
     inkscape:window-x="-8"
     inkscape:window-y="-8"
     inkscape:window-maximized="1"
     inkscape:current-layer="layer1" /><defs
     id="defs1"><linearGradient
       id="linearGradient5"
       inkscape:collect="always"><stop
         style="stop-color:#ff6600;stop-opacity:1;"
         offset="0"
         id="stop5" /><stop
         style="stop-color:#f0f0f0;stop-opacity:0;"
         offset="1"
         id="stop6" /></linearGradient><linearGradient
       inkscape:collect="always"
       xlink:href="#linearGradient5"
       id="linearGradient6"
       x1="8.3515938"
       y1="100.07413"
       x2="188.1061"
       y2="100.07413"
       gradientUnits="userSpaceOnUse"
       gradientTransform="translate(233.86084,-0.97337782)" /></defs><g
     inkscape:label="Layer 1"
     inkscape:groupmode="layer"
     id="layer1"><path
       style="fill:#dfd1e5;fill-opacity:1;stroke:none;stroke-width:0.99985;stroke-dasharray:none;stroke-dashoffset:0;stroke-opacity:1"
       d="M 39.420477,97.8826 C 19.353793,49.458562 3.1210861,8.8996635 2.755044,8.0008377 1.6784351,5.3571973 1.9025919,3.3972343 3.3172643,2.3428629 3.7049524,2.0539146 4.293875,1.9150736 5.3973507,1.9264174 6.4392658,1.9371284 19.629882,4.5403902 58.189664,12.169441 c 28.34269,5.6076 52.215816,10.373535 52.429926,10.424793 0.66396,0.158953 4.4239,2.862454 6.77436,4.892108 6.49361,5.607326 9.78899,11.276132 11.35574,19.049127 0.36881,1.829692 0.54872,2.810439 0.54469,5.992511 -0.005,4.24402 -0.39083,6.077508 -1.68821,9.970984 -2.15907,6.479442 -5.26976,10.350423 -11.22418,14.299245 -2.33136,1.546092 -6.32691,3.535188 -9.21526,4.656518 -3.4706,1.347372 -3.33252,1.155118 -3.33252,1.704502 0,0.389932 2.6772,3.100633 13.79828,14.336632 7.58878,7.667209 9.93807,9.941779 9.97174,10.034389 0.05,0.13759 -9.98563,13.03852 -10.73064,13.84935 -0.1759,0.19143 0.35058,0.58887 -13.37672,-13.78785 C 93.987317,97.632304 85.733611,89.050539 85.115309,88.445815 83.030861,86.40715 84.646354,86.663812 69.307122,86.600656 c -9.961975,-0.04102 -13.387925,-0.09761 -13.584132,0.06535 -0.144592,0.120002 -0.303821,0.212307 -0.303821,0.44808 0,0.235773 7.526814,18.474234 16.8906,40.551344 9.363787,22.07712 21.926092,48.69798 23.048624,52.12144 0.03198,0.0975 -1.149737,1.496 -3.896368,5.17844 -2.746632,3.68243 -8.440198,11.75679 -9.205823,10.41989 l -8.79561,-15.35849 z M 96.478525,70.547573 c 2.667135,-0.682135 5.111685,-2.423139 7.891155,-4.763466 1.69098,-1.423818 2.95208,-2.775354 3.92623,-4.548838 2.06071,-3.75159 3.04436,-8.763825 2.35784,-12.077721 -0.83473,-4.029316 -3.62673,-8.715565 -6.41084,-11.056173 -2.7388,-2.302515 -8.570369,-5.915347 -12.405761,-7.240267 L 89.966262,30.214818 62.55286,30.024689 C 45.962715,29.909627 35.211578,29.779986 35.249852,29.883544 c 0.03486,0.09431 3.938178,9.248389 8.28919,20.523255 l 8.272825,20.311155 21.450191,0.006 c 20.894931,7.93e-4 21.871738,0.167587 23.216467,-0.17635 z"
       id="path53"
       sodipodi:nodetypes="ssssssssssssssssssscssssscssssssscsssccss" /><path
       id="path5"
       style="fill:url(#linearGradient6);stroke:none;stroke-width:0.2"
       inkscape:transform-center-x="0.44796634"
       inkscape:transform-center-y="7.5959059"
       d="M 242.40351,23.510664 421.78823,50.009602 330.45576,174.63792 Z"
       sodipodi:nodetypes="cccc" /><path
       style="fill:#ffffff;stroke:#062aeb;stroke-width:0.477;stroke-dasharray:2.862, 0.477;stroke-dashoffset:0;stroke-opacity:1"
       d="M 421.78823,50.009602 330.45576,174.63792"
       id="path3-5"
       sodipodi:nodetypes="cc" /><path
       style="fill:#ffffff;stroke:#ff1b00;stroke-width:0.48;stroke-dasharray:5.76, 0.48;stroke-dashoffset:0;stroke-opacity:1"
       d="M 282.86879,92.962688 425.4636,130.87421"
       id="path3-5-8"
       sodipodi:nodetypes="cc" /><path
       style="fill:#ffffff;stroke:#ff1b00;stroke-width:0.480748;stroke-dasharray:none;stroke-opacity:1"
       d="m 242.40351,23.510664 56.72713,31.85924 -16.26185,37.592784"
       id="path4" /><path
       style="fill:#ffffff;stroke:#ff1b00;stroke-width:0.480748;stroke-dasharray:none;stroke-opacity:1"
       d="M 242.40351,23.510664 330.45576,174.63792"
       id="path3"
       sodipodi:nodetypes="cc" /><circle
       id="path10"
       style="fill:#ffffff;stroke:#ff1b00;stroke-width:0.264583"
       cx="-246.57822"
       cy="5.2912765"
       r="0.0063733389" /><circle
       id="path11"
       style="fill:#ffffff;stroke:#000000;stroke-width:0.264583;stroke-opacity:1"
       cx="-144.09677"
       cy="24.85074"
       r="0.0063733389" /><path
       style="fill:#ffffff;fill-opacity:1;stroke:#000000;stroke-width:1;stroke-dasharray:none;stroke-dashoffset:0;stroke-opacity:1"
       d="M -223.63712,9.47978 -35.56989,46.70809"
       id="path21"
       sodipodi:nodetypes="cc" /><path
       style="fill:#ffffff;fill-opacity:1;stroke:#000000;stroke-width:1;stroke-dasharray:none;stroke-dashoffset:0;stroke-opacity:1"
       d="M -144.64724,199.97641 -34.04005,53.10327"
       id="path21-1"
       sodipodi:nodetypes="cc" /><path
       style="fill:#ffffff;fill-opacity:1;stroke:#000000;stroke-width:1;stroke-dasharray:none;stroke-dashoffset:0;stroke-opacity:1"
       d="m -228.90753,15.09586 76.03749,185.18134"
       id="path22"
       sodipodi:nodetypes="cc" /><path
       style="fill:none;fill-opacity:1;stroke:#000000;stroke-width:1;stroke-dasharray:none;stroke-dashoffset:0;stroke-opacity:1"
       d="m -223.51414,9.49435 c 0,0 -4.61327,-0.4185 -5.54666,0.50603 -1.00032,0.99083 0.17199,5.14819 0.17199,5.14819"
       id="path23"
       sodipodi:nodetypes="csc" /><path
       style="fill:none;fill-opacity:1;stroke:#000000;stroke-width:1;stroke-dasharray:none;stroke-dashoffset:0;stroke-opacity:1"
       d="m -142.87248,38.04188 -52.19106,-0.052 16.00356,40.12711 h 42.12564"
       id="path24"
       sodipodi:nodetypes="cccc" /><path
       style="fill:none;fill-opacity:1;stroke:#000000;stroke-width:1;stroke-dasharray:none;stroke-dashoffset:0;stroke-opacity:1"
       d="m -143.07368,38.00445 c 0,0 8.75533,2.47896 15.42167,7.52806 4.5017,3.40961 6.77602,8.93135 7.1755,11.61484 0.46642,3.13305 -0.66708,10.3653 -4.52188,14.48225 -4.59848,4.91122 -12.1038,6.48745 -12.1038,6.48745"
       id="path25"
       sodipodi:nodetypes="csssc" /><path
       style="fill:#ffffff;fill-opacity:1;stroke:#000000;stroke-width:1;stroke-dasharray:none;stroke-dashoffset:0;stroke-opacity:1"
       d="M -83.58855,66.63923 H -60.8732"
       id="path27" /><path
       style="fill:none;fill-opacity:1;stroke:#000000;stroke-width:1;stroke-dasharray:none;stroke-dashoffset:0;stroke-opacity:1"
       d="m -84.73262,67.41615 -28.23674,39.597 -12.88139,-16.5211"
       id="path28"
       sodipodi:nodetypes="ccc" /><path
       style="fill:none;fill-opacity:1;stroke:#000000;stroke-width:1;stroke-dasharray:none;stroke-dashoffset:0;stroke-opacity:1"
       d="m -60.49317,67.4402 -40.93197,52.35072 36.20714,43.43194"
       id="path29"
       sodipodi:nodetypes="ccc" /><path
       style="fill:none;fill-opacity:1;stroke:#000000;stroke-width:1;stroke-dasharray:none;stroke-dashoffset:0;stroke-opacity:1"
       d="m -65.1547,165.77066 -23.20708,0.11077 -24.16528,-29.1836"
       id="path30"
       sodipodi:nodetypes="ccc" /><path
       style="fill:none;fill-opacity:1;stroke:#000000;stroke-width:1;stroke-dasharray:none;stroke-dashoffset:0;stroke-opacity:1"
       d="m -113.52721,136.63731 -27.68504,38.26405"
       id="path31"
       sodipodi:nodetypes="cc" /><path
       style="fill:none;fill-opacity:1;stroke:#000000;stroke-width:1;stroke-dasharray:none;stroke-dashoffset:0;stroke-opacity:1"
       d="m -123.53624,120.73087 -25.67379,34.40292"
       id="path32"
       sodipodi:nodetypes="cc" /><path
       style="fill:none;fill-opacity:1;stroke:#000000;stroke-width:1;stroke-dasharray:none;stroke-dashoffset:0;stroke-opacity:1"
       d="M -123.53624,120.73087 -145.19975,97.27698"
       id="path33" /><path
       style="fill:none;fill-opacity:1;stroke:#000000;stroke-width:1;stroke-dasharray:none;stroke-dashoffset:0;stroke-opacity:1"
       d="m -174.54369,94.6065 h 23.80052"
       id="path34" /><path
       style="fill:none;fill-opacity:1;stroke:#000000;stroke-width:1;stroke-dasharray:none;stroke-dashoffset:0;stroke-opacity:1"
       d="m -174.54369,94.6065 38.83053,93.16662"
       id="path35"
       sodipodi:nodetypes="cc" /><path
       style="fill:none;fill-opacity:1;stroke:#000000;stroke-width:1;stroke-dasharray:none;stroke-dashoffset:0;stroke-opacity:1"
       d="m -150.74317,94.6065 c 0,0 2.04473,-0.009 2.98006,0.44183 0.91248,0.43957 2.56336,2.22865 2.56336,2.22865"
       id="path36"
       sodipodi:nodetypes="csc" /><path
       style="fill:none;fill-opacity:1;stroke:#000000;stroke-width:1;stroke-dasharray:none;stroke-dashoffset:0;stroke-opacity:1"
       d="m -120.15123,30.00634 c 0,0 8.62524,5.14001 13.70643,12.639 4.46049,6.58294 5.49293,15.27414 5.05256,19.94752 -0.4097,4.34791 -2.34863,12.61273 -7.40393,17.75024 -6.7633,6.87326 -17.05458,10.14895 -17.05458,10.14895"
       id="path37"
       sodipodi:nodetypes="csssc" /><path
       style="fill:none;fill-opacity:1;stroke:#000000;stroke-width:1;stroke-dasharray:none;stroke-dashoffset:0;stroke-opacity:1"
       d="m -35.6702,46.68018 c 0,0 0.92852,0.34866 1.82002,0.85154 0.81984,0.46245 1.62013,1.02425 1.67158,1.47698 0.10258,0.9028 -1.96842,4.25358 -1.96842,4.25358"
       id="path38"
       sodipodi:nodetypes="cssc" /><path
       style="fill:none;fill-opacity:1;stroke:#000000;stroke-width:1;stroke-dasharray:none;stroke-dashoffset:0;stroke-opacity:1"
       d="m -152.96499,200.13045 c 0,0 2.65843,2.99656 3.93699,2.93026 1.50565,-0.0781 4.54861,-3.24096 4.54861,-3.24096"
       id="path39"
       sodipodi:nodetypes="csc" /><path
       style="fill:none;fill-opacity:1;stroke:#000000;stroke-width:1;stroke-dasharray:none;stroke-dashoffset:0;stroke-opacity:1"
       d="m -65.218,163.22286 c 0,0 1.38983,1.66741 1.40032,2.08967 0.0106,0.42701 -1.33702,0.45813 -1.33702,0.45813"
       id="path40"
       sodipodi:nodetypes="csc" /><path
       style="fill:none;fill-opacity:1;stroke:#000000;stroke-width:1;stroke-dasharray:none;stroke-dashoffset:0;stroke-opacity:1"
       d="m -60.8732,66.63923 c 0,0 0.66832,7.7e-4 0.73647,0.1444 0.0585,0.12337 -0.35644,0.65657 -0.35644,0.65657"
       id="path41"
       sodipodi:nodetypes="csc" /><path
       style="fill:none;fill-opacity:1;stroke:#000000;stroke-width:1;stroke-dasharray:none;stroke-dashoffset:0;stroke-opacity:1"
       d="m -112.46846,136.78467 c 0,0 -0.44827,-0.78375 -0.60708,-0.7765 -0.13639,0.006 -0.50289,0.71088 -0.50289,0.71088"
       id="path41-0"
       sodipodi:nodetypes="csc" /><path
       style="fill:none;fill-opacity:1;stroke:#000000;stroke-width:1;stroke-dasharray:none;stroke-dashoffset:0;stroke-opacity:1"
       d="m -83.49268,66.63923 c 0,0 -0.56161,-0.037 -0.69513,0.0493 -0.12051,0.0779 -0.59284,0.80223 -0.59284,0.80223"
       id="path41-6"
       sodipodi:nodetypes="csc" /><path
       style="fill:none;fill-opacity:1;stroke:#42c21d;stroke-width:0.5;stroke-dasharray:none;stroke-dashoffset:0;stroke-opacity:1"
       d="M -195.06354,37.98988 -229.0608,10.00038"
       id="path42"
       sodipodi:nodetypes="cc" /><path
       style="fill:none;fill-opacity:1;stroke:#42c21d;stroke-width:0.5;stroke-dasharray:none;stroke-dashoffset:0;stroke-opacity:1"
       d="m -195.06354,37.98988 -23.68582,1.84514"
       id="path42-6"
       sodipodi:nodetypes="cc" /><path
       style="fill:none;fill-opacity:1;stroke:#42c21d;stroke-width:0.5;stroke-dasharray:none;stroke-dashoffset:0;stroke-opacity:1"
       d="m -187.06176,58.05343 -31.6876,-18.21841"
       id="path42-8"
       sodipodi:nodetypes="cc" /><path
       style="fill:none;fill-opacity:1;stroke:#42c21d;stroke-width:0.5;stroke-dasharray:none;stroke-dashoffset:0;stroke-opacity:1"
       d="m -204.54951,74.41729 17.48775,-16.36386"
       id="path42-0"
       sodipodi:nodetypes="cc" /><path
       style="fill:none;fill-opacity:1;stroke:#42c21d;stroke-width:0.5;stroke-dasharray:none;stroke-dashoffset:0;stroke-opacity:1"
       d="m -179.05998,78.11699 -25.48953,-3.6997"
       id="path42-65"
       sodipodi:nodetypes="cc" /><path
       style="fill:none;fill-opacity:1;stroke:#42c21d;stroke-width:0.5;stroke-dasharray:none;stroke-dashoffset:0;stroke-opacity:1"
       d="m -179.05998,78.11699 -15.98415,19.49907"
       id="path42-65-3"
       sodipodi:nodetypes="cc" /><path
       style="fill:none;fill-opacity:1;stroke:#42c21d;stroke-width:0.5;stroke-dasharray:none;stroke-dashoffset:0;stroke-opacity:1"
       d="m -174.54369,94.6065 -20.50044,3.00956"
       id="path42-65-00"
       sodipodi:nodetypes="cc" /><path
       style="fill:none;fill-opacity:1;stroke:#42c21d;stroke-width:0.5;stroke-dasharray:none;stroke-dashoffset:0;stroke-opacity:1"
       d="m -174.54369,94.6065 -10.90745,26.32285"
       id="path42-65-2"
       sodipodi:nodetypes="cc" /><path
       style="fill:none;fill-opacity:1;stroke:#42c21d;stroke-width:0.5;stroke-dasharray:none;stroke-dashoffset:0;stroke-opacity:1"
       d="m -162.64343,124.13684 -22.80771,-3.20749"
       id="path42-65-5"
       sodipodi:nodetypes="cc" /><path
       style="fill:none;fill-opacity:1;stroke:#42c21d;stroke-width:0.5;stroke-dasharray:none;stroke-dashoffset:0;stroke-opacity:1"
       d="m -175.61394,144.88681 12.97051,-20.74997"
       id="path42-65-5-9"
       sodipodi:nodetypes="cc" /><path
       style="fill:none;fill-opacity:1;stroke:#42c21d;stroke-width:0.5;stroke-dasharray:none;stroke-dashoffset:0;stroke-opacity:1"
       d="m -175.61394,144.88681 15.86475,-2.04098 5.08728,-0.53669"
       id="path42-65-5-9-8"
       sodipodi:nodetypes="ccc" /><path
       style="fill:#dfd1e5;fill-opacity:1;stroke:none;stroke-width:0.99985;stroke-dasharray:none;stroke-dashoffset:0;stroke-opacity:1"
       d="m 171.40905,176.64991 c -0.56554,-0.15195 -1.50383,-0.50421 -1.99221,-0.78282 -0.60091,-0.34279 -5.48195,-5.25725 -14.75686,-14.76892 -7.53813,-7.73056 -16.35126,-16.53715 -19.43604,-19.74777 l -5.72398,-5.95747 5.51054,-7.21832 5.41699,-7.38204 19.46019,20.31117 c 10.51818,10.97814 19.43045,20.45367 19.86573,20.98512 1.72566,2.10698 2.67449,4.83666 2.26882,6.92236 -0.28077,1.44358 -1.42286,4.25462 -2.22067,5.16327 -1.07702,1.22666 -5.03108,2.72934 -6.71406,2.69498 -0.25725,-0.005 -1.11292,-0.0676 -1.67845,-0.21956 z"
       id="path54"
       sodipodi:nodetypes="sssscccssssss" /><path
       style="fill:#b3e2cd;fill-opacity:1;stroke:none;stroke-width:1"
       d="m 81.063676,194.8306 c -0.444582,-0.11988 -1.421265,-0.66719 -1.766181,-1.03434 -0.768411,-0.81793 -6.20717,-13.85775 -5.931578,-14.22686 0.108654,-0.14552 24.202316,-32.35687 53.309043,-71.23718 29.10672,-38.880313 52.99848,-70.948606 53.27023,-71.234904 l 0.669,-0.704776 7.76748,1.554123 c 4.56275,0.912916 8.55895,1.891316 9.03387,2.180132 1.22259,0.743498 1.3502,1.825704 0.31484,3.693882 -1.39886,2.524062 -111.724867,148.599533 -113.044516,149.680883 -1.437386,1.17783 -2.601204,1.60435 -3.622188,1.32904 z"
       id="path1"
       sodipodi:nodetypes="ssssscsssss" /><circle
       id="path10-7"
       style="fill:#ffffff;stroke:#ff1b00;stroke-width:0.264583"
       cx="-2.6525717"
       cy="4.9607968"
       r="0.0063733389" /><circle
       id="path11-1"
       style="fill:#ffffff;stroke:#000000;stroke-width:0.264583;stroke-opacity:1"
       cx="86.864288"
       cy="17.111927"
       r="0.0063733389" /><path
       style="fill:#ff7f2a;fill-opacity:1;stroke:#ac648c;stroke-width:1;stroke-dasharray:none;stroke-dashoffset:0;stroke-opacity:1"
       d="M 7.3239337,1.7409667 195.39117,38.969277"
       id="path21-7"
       sodipodi:nodetypes="cc" /><path
       style="fill:#ffffff;fill-opacity:1;stroke:#ac648c;stroke-width:1;stroke-dasharray:none;stroke-dashoffset:0;stroke-opacity:1"
       d="M 86.313814,192.2376 196.92101,45.364457"
       id="path21-1-3"
       sodipodi:nodetypes="cc" /><path
       style="fill:#ffffff;fill-opacity:1;stroke:#ac648c;stroke-width:1;stroke-dasharray:none;stroke-dashoffset:0;stroke-opacity:1"
       d="M 72.9603,179.79061 180.86509,36.153745"
       id="path21-1-3-6"
       sodipodi:nodetypes="cc" /><path
       style="fill:#ffffff;fill-opacity:1;stroke:#ac648c;stroke-width:1;stroke-dasharray:none;stroke-dashoffset:0;stroke-opacity:1"
       d="M 2.0535237,7.3570467 78.389187,193.07627"
       id="path22-0"
       sodipodi:nodetypes="cc" /><path
       style="fill:none;fill-opacity:1;stroke:#ac648c;stroke-width:1;stroke-dasharray:none;stroke-dashoffset:0;stroke-opacity:1"
       d="m 7.3327035,1.7409667 c 0,0 -1.0916919,-0.2133282 -2.462333,-0.1832202 C 3.6785571,1.5839265 2.851366,2.1318122 2.4503135,2.570085 2.0906027,2.9631792 1.5741402,4.2338347 1.6366035,5.1188652 1.7391938,6.572446 2.0547041,7.3629845 2.0547041,7.3629845"
       id="path23-1"
       sodipodi:nodetypes="csssc" /><path
       style="fill:none;fill-opacity:1;stroke:#ac648c;stroke-width:1;stroke-dasharray:none;stroke-dashoffset:0;stroke-opacity:1"
       d="m 195.29086,38.941367 c 0,0 1.04428,0.216368 1.93578,0.719248 0.81984,0.46245 1.51337,1.908221 1.38292,2.327878 -0.26971,0.867655 -1.79552,3.546667 -1.79552,3.546667"
       id="path38-1"
       sodipodi:nodetypes="cssc" /><path
       style="fill:none;fill-opacity:1;stroke:#ac648c;stroke-width:1;stroke-dasharray:none;stroke-dashoffset:0;stroke-opacity:1"
       d="m 78.355194,193.00962 c 0,0 0.767273,1.3538 1.476457,1.64595 1.134191,0.46723 1.593403,0.65652 2.415614,0.56951 0.924384,-0.0978 2.518538,-1.42226 3.439654,-2.31163 0.397077,-0.38339 0.647565,-0.71306 0.647565,-0.71306"
       id="path44"
       sodipodi:nodetypes="csssc" /><path
       style="fill:#ece2f0;fill-opacity:1;stroke:none;stroke-width:0.99985;stroke-dasharray:none;stroke-dashoffset:0;stroke-opacity:1"
       d="m -77.894443,390.30455 c -0.56554,-0.15195 -1.50383,-0.50421 -1.99221,-0.78282 -0.60091,-0.34279 -5.48195,-5.25725 -14.75686,-14.76892 -7.538127,-7.73056 -16.351257,-16.53715 -19.436037,-19.74777 l -5.72398,-5.95747 5.51054,-7.21832 5.41699,-7.38204 19.460187,20.31117 c 10.51818,10.97814 19.43045,20.45367 19.86573,20.98512 1.72566,2.10698 2.67449,4.83666 2.26882,6.92236 -0.28077,1.44358 -1.42286,4.25462 -2.22067,5.16327 -1.07702,1.22666 -5.03108,2.72934 -6.71406,2.69498 -0.25725,-0.005 -1.11292,-0.0676 -1.67845,-0.21956 z"
       id="path54-6"
       sodipodi:nodetypes="sssscccssssss" /><path
       style="fill:#b3e2cd;fill-opacity:1;stroke:none;stroke-width:1"
       d="m -168.23981,408.48524 c -0.44459,-0.11988 -1.42127,-0.66719 -1.76618,-1.03434 -0.76842,-0.81793 -6.20718,-13.85775 -5.93158,-14.22686 0.10865,-0.14552 24.20231,-32.35687 53.30904,-71.23718 29.106717,-38.88031 52.998477,-70.94861 53.270227,-71.2349 l 0.669,-0.70478 7.76748,1.55412 c 4.56275,0.91292 8.55895,1.89132 9.03387,2.18014 1.22259,0.74349 1.3502,1.8257 0.31484,3.69388 -1.39886,2.52406 -111.724867,148.59953 -113.044517,149.68088 -1.43738,1.17783 -2.6012,1.60435 -3.62218,1.32904 z"
       id="path1-8"
       sodipodi:nodetypes="ssssscsssss" /><path
       style="fill:#ece2f0;fill-opacity:1;stroke:none;stroke-width:0.99985;stroke-dasharray:none;stroke-dashoffset:0;stroke-opacity:1"
       d="m -209.88301,311.53724 c -20.00186,-48.45085 -36.29939,-88.98294 -36.66544,-89.88176 -1.0766,-2.64364 -0.85245,-4.60361 0.56222,-5.65798 0.38769,-0.28895 0.97661,-0.42779 2.08009,-0.41644 1.04192,0.0107 14.23253,2.61397 52.79231,10.24302 28.34269,5.6076 52.21582,10.37354 52.42993,10.42479 0.66396,0.15896 4.4239,2.86246 6.77436,4.89211 6.49361,5.60733 9.78899,11.27613 11.35574,19.04913 0.36881,1.82969 0.54872,2.81044 0.54469,5.99251 -0.005,4.24402 -0.39083,6.07751 -1.68821,9.97098 -2.15907,6.47945 -5.26976,10.35043 -11.22418,14.29925 -2.33136,1.54609 -6.32691,3.53519 -9.21526,4.65652 -3.4706,1.34737 -3.33252,1.15512 -3.33252,1.7045 0,0.38993 2.6772,3.10063 13.79828,14.33663 7.58878,7.66721 9.61066,9.61437 9.64433,9.70698 0.05,0.13759 -10.0324,13.17884 -10.77741,13.98967 -0.1759,0.19143 0.72476,0.77596 -13.00254,-13.60076 -9.50955,-9.95945 -17.76326,-18.54121 -18.38156,-19.14594 -2.08445,-2.03866 -0.46896,-1.782 -15.80819,-1.84515 -9.96197,-0.041 -13.38792,-0.0976 -13.58413,0.0653 -0.14459,0.12 -0.30382,0.2123 -0.30382,0.44808 0,0.23577 7.52681,18.47423 16.8906,40.55134 9.36379,22.07712 13.69419,30.08266 14.81672,33.50612 0.032,0.0975 -4.09638,5.40147 -6.84301,9.08391 -2.74663,3.68243 -5.94603,6.11793 -5.69791,7.59018 l -1.47577,1.64319 z m 57.05805,-27.33503 c 2.66713,-0.68213 5.11168,-2.42314 7.89115,-4.76346 1.69098,-1.42382 2.95208,-2.77536 3.92623,-4.54884 2.06071,-3.75159 3.04436,-8.76383 2.35784,-12.07772 -0.83473,-4.02932 -3.62673,-8.71557 -6.41084,-11.05617 -2.7388,-2.30252 -8.57037,-5.91535 -12.40576,-7.24027 l -1.87089,-0.64629 -27.4134,-0.19013 c -16.59014,-0.11506 -27.34128,-0.2447 -27.30301,-0.14115 0.0349,0.0943 3.93818,9.24839 8.28919,20.52326 l 8.27283,20.31115 21.45019,0.006 c 20.89493,8e-4 21.87174,0.16759 23.21647,-0.17635 z"
       id="path53-3"
       sodipodi:nodetypes="ssssssssssssssssssscssssscssssssscsssccss" /><path
       style="fill:none;fill-opacity:1;stroke:#000000;stroke-width:1;stroke-dasharray:none;stroke-dashoffset:0;stroke-opacity:1"
       d="m -144.82017,297.34579 c 0,0 -0.4019,-0.37276 -0.38981,-0.53127 0.0118,-0.15438 0.58044,-0.34842 0.58044,-0.34842"
       id="path41-2-6"
       sodipodi:nodetypes="csc" /><path
       style="fill:none;fill-opacity:1;stroke:#000000;stroke-width:1;stroke-dasharray:none;stroke-dashoffset:0;stroke-opacity:1"
       d="m -193.33395,301.23398 c 0,0 -0.19487,-0.42949 -0.16193,-0.59717 0.0283,-0.14386 0.67986,-0.11595 0.67986,-0.11595"
       id="path41-2-4-3"
       sodipodi:nodetypes="csc" /><circle
       id="path10-7-4"
       style="fill:#ffffff;stroke:#ff1b00;stroke-width:0.264583"
       cx="-251.95605"
       cy="218.61545"
       r="0.0063733389" /><circle
       id="path11-1-2"
       style="fill:#ffffff;stroke:#000000;stroke-width:0.264583;stroke-opacity:1"
       cx="-162.43919"
       cy="230.76657"
       r="0.0063733389" /><path
       style="fill:#ff7f2a;fill-opacity:1;stroke:#000000;stroke-width:1;stroke-dasharray:none;stroke-dashoffset:0;stroke-opacity:1"
       d="m -241.97956,215.39561 188.067237,37.22831"
       id="path21-7-9"
       sodipodi:nodetypes="cc" /><path
       style="fill:#ffffff;fill-opacity:1;stroke:#000000;stroke-width:1;stroke-dasharray:none;stroke-dashoffset:0;stroke-opacity:1"
       d="M -162.98968,405.89224 -52.382483,259.0191"
       id="path21-1-3-18"
       sodipodi:nodetypes="cc" /><path
       style="fill:#ffffff;fill-opacity:1;stroke:#000000;stroke-width:1;stroke-dasharray:none;stroke-dashoffset:0;stroke-opacity:1"
       d="M -176.27568,393.09996 -69.075623,249.91724"
       id="path21-1-3-1-6"
       sodipodi:nodetypes="cc" /><path
       style="fill:#ffffff;fill-opacity:1;stroke:#000000;stroke-width:1;stroke-dasharray:none;stroke-dashoffset:0;stroke-opacity:1"
       d="m -247.24997,221.01169 76.33567,185.71922"
       id="path22-0-2"
       sodipodi:nodetypes="cc" /><path
       style="fill:none;fill-opacity:1;stroke:#000000;stroke-width:1;stroke-dasharray:none;stroke-dashoffset:0;stroke-opacity:1"
       d="m -241.97079,215.39561 c 0,0 -1.09169,-0.21333 -2.46233,-0.18322 -1.19181,0.0262 -2.019,0.57406 -2.42006,1.01234 -0.35971,0.39309 -0.87617,1.66374 -0.81371,2.54878 0.10259,1.45358 0.4181,2.24411 0.4181,2.24411"
       id="path23-1-3"
       sodipodi:nodetypes="csssc" /><path
       style="fill:none;fill-opacity:1;stroke:#000000;stroke-width:1;stroke-dasharray:none;stroke-dashoffset:0;stroke-opacity:1"
       d="m -161.21491,243.95771 -52.19107,-0.052 16.00356,40.12711 h 42.12565"
       id="path24-3-5"
       sodipodi:nodetypes="cccc" /><path
       style="fill:none;fill-opacity:1;stroke:#000000;stroke-width:1;stroke-dasharray:none;stroke-dashoffset:0;stroke-opacity:1"
       d="m -161.2575,243.95878 c 0,0 1.45786,0.0271 3.55987,0.74636 3.08972,1.05731 7.80204,3.27534 11.76934,6.28018 4.5017,3.4096 6.70987,9.39437 7.10935,12.07786 0.46642,3.13305 -0.66709,10.36529 -4.52188,14.48225 -1.74706,1.86588 -3.87389,3.45281 -5.82971,4.56415 -3.32217,1.88775 -6.12001,1.9233 -6.12001,1.9233"
       id="path25-5-8"
       sodipodi:nodetypes="csssssc" /><path
       style="fill:none;fill-opacity:1;stroke:#000000;stroke-width:1;stroke-dasharray:none;stroke-dashoffset:0;stroke-opacity:1"
       d="m -132.73913,335.4173 -30.81475,-32.22449"
       id="path33-0-4"
       sodipodi:nodetypes="cc" /><path
       style="fill:none;fill-opacity:1;stroke:#000000;stroke-width:1;stroke-dasharray:none;stroke-dashoffset:0;stroke-opacity:1"
       d="M -81.057323,389.11903 -120.03868,349.17356"
       id="path33-0-8-2"
       sodipodi:nodetypes="cc" /><path
       style="fill:none;fill-opacity:1;stroke:#000000;stroke-width:1;stroke-dasharray:none;stroke-dashoffset:0;stroke-opacity:1"
       d="m -121.86603,320.7104 -23.02233,-23.4335"
       id="path33-0-9-6"
       sodipodi:nodetypes="cc" /><path
       style="fill:none;fill-opacity:1;stroke:#000000;stroke-width:1;stroke-dasharray:none;stroke-dashoffset:0;stroke-opacity:1"
       d="m -69.631093,375.15561 -38.950437,-40.9461"
       id="path33-0-9-5-9"
       sodipodi:nodetypes="cc" /><path
       style="fill:none;fill-opacity:1;stroke:#000000;stroke-width:1;stroke-dasharray:none;stroke-dashoffset:0;stroke-opacity:1"
       d="m -192.88613,300.52233 h 23.80052"
       id="path34-6-4" /><path
       style="fill:none;fill-opacity:1;stroke:#000000;stroke-width:1;stroke-dasharray:none;stroke-dashoffset:0;stroke-opacity:1"
       d="m -193.34915,301.20032 31.19534,73.28026"
       id="path35-6-5"
       sodipodi:nodetypes="cc" /><path
       style="fill:none;fill-opacity:1;stroke:#000000;stroke-width:1;stroke-dasharray:none;stroke-dashoffset:0;stroke-opacity:1"
       d="m -169.08561,300.52233 c 0,0 2.04473,-0.009 2.98006,0.44183 0.91248,0.43957 2.56336,2.22865 2.56336,2.22865"
       id="path36-3-2"
       sodipodi:nodetypes="csc" /><path
       style="fill:none;fill-opacity:1;stroke:#000000;stroke-width:1;stroke-dasharray:none;stroke-dashoffset:0;stroke-opacity:1"
       d="m -138.49366,235.92217 c 0,0 8.62524,5.14001 13.70643,12.639 4.46049,6.58294 5.49293,15.27414 5.05256,19.94752 -0.4097,4.34791 -2.34863,12.61273 -7.40393,17.75024 -6.7633,6.87326 -17.5176,10.21509 -17.5176,10.21509"
       id="path37-9-6"
       sodipodi:nodetypes="csssc" /><path
       style="fill:none;fill-opacity:1;stroke:#000000;stroke-width:1;stroke-dasharray:none;stroke-dashoffset:0;stroke-opacity:1"
       d="m -54.012633,252.59601 c 0,0 1.04428,0.21637 1.93578,0.71925 0.81984,0.46245 1.51337,1.90822 1.38292,2.32787 -0.26971,0.86766 -1.79552,3.54667 -1.79552,3.54667"
       id="path38-1-8"
       sodipodi:nodetypes="cssc" /><path
       style="fill:none;fill-opacity:1;stroke:#000000;stroke-width:1;stroke-dasharray:none;stroke-dashoffset:0;stroke-opacity:1"
       d="m -69.734863,375.03574 c 0,0 2.43802,2.56686 2.72557,5.85328 0.24316,2.7791 -1.58959,6.07725 -2.5361,7.10168 -1.09938,1.18989 -4.3618,2.96923 -7.07497,2.81002 -2.61154,-0.15324 -4.49591,-1.7404 -4.49591,-1.7404"
       id="path43-6"
       sodipodi:nodetypes="csssc" /><path
       style="fill:none;fill-opacity:1;stroke:#000000;stroke-width:1;stroke-dasharray:none;stroke-dashoffset:0;stroke-opacity:1"
       d="m -170.9483,406.66426 c 0,0 0.76728,1.3538 1.47646,1.64595 1.13419,0.46723 1.5934,0.65652 2.41562,0.56951 0.92438,-0.0978 2.51853,-1.42226 3.43965,-2.31163 0.39708,-0.38339 0.64756,-0.71306 0.64756,-0.71306"
       id="path44-7"
       sodipodi:nodetypes="csssc" /></g></svg>
